<?xml version="1.0" encoding="UTF-8"?>
<svg xmlns="http://www.w3.org/2000/svg" xmlns:xlink="http://www.w3.org/1999/xlink" width="16px" height="16px" viewBox="0 0 16 16" version="1.1">
  <g id="surface1">
    <path style=" stroke:none;fill-rule:nonzero;fill:rgb(100%,100%,100%);fill-opacity:1;" d="M 15.996094 8.398438 C 15.996094 7.054688 15.160156 5.890625 13.921875 5.433594 C 13.972656 5.152344 14 4.863281 14 4.574219 C 14 2.078125 11.976562 0.0546875 9.480469 0.0546875 C 8.03125 0.0546875 6.671875 0.746094 5.824219 1.933594 C 5.40625 1.609375 4.898438 1.4375 4.363281 1.4375 C 3.042969 1.4375 1.957031 2.511719 1.957031 3.84375 C 1.957031 4.128906 2.011719 4.417969 2.101562 4.679688 C 0.847656 5.109375 0 6.308594 0 7.640625 C 0 8.988281 0.835938 10.164062 2.089844 10.621094 C 2.039062 10.894531 2.011719 11.179688 2.011719 11.480469 C 2.011719 13.960938 4.035156 15.988281 6.515625 15.988281 C 7.980469 15.988281 9.324219 15.28125 10.171875 14.105469 C 10.589844 14.433594 11.113281 14.617188 11.648438 14.617188 C 12.96875 14.617188 14.050781 13.542969 14.050781 12.210938 C 14.050781 11.925781 14 11.636719 13.90625 11.378906 C 15.136719 10.933594 15.996094 9.730469 15.996094 8.398438 Z M 15.996094 8.398438 "/>
    <path style=" stroke:none;fill-rule:nonzero;fill:rgb(95.686275%,74.117649%,9.803922%);fill-opacity:1;" d="M 6.253906 6.898438 L 9.820312 8.53125 L 13.425781 5.371094 C 13.476562 5.109375 13.503906 4.839844 13.503906 4.574219 C 13.503906 2.351562 11.699219 0.550781 9.480469 0.550781 C 8.148438 0.550781 6.910156 1.203125 6.164062 2.300781 L 5.5625 5.410156 Z M 6.253906 6.898438 "/>
    <path style=" stroke:none;fill-rule:nonzero;fill:rgb(23.529412%,74.509805%,69.411767%);fill-opacity:1;" d="M 2.558594 10.671875 C 2.507812 10.933594 2.480469 11.207031 2.480469 11.480469 C 2.480469 13.703125 4.296875 15.515625 6.515625 15.515625 C 7.863281 15.515625 9.101562 14.851562 9.859375 13.753906 L 10.449219 10.644531 L 9.652344 9.132812 L 6.074219 7.5 Z M 2.558594 10.671875 "/>
    <path style=" stroke:none;fill-rule:nonzero;fill:rgb(91.37255%,27.843139%,54.901963%);fill-opacity:1;" d="M 2.535156 4.496094 L 4.976562 5.070312 L 5.523438 2.289062 C 5.183594 2.027344 4.78125 1.894531 4.347656 1.894531 C 3.289062 1.894531 2.414062 2.757812 2.414062 3.828125 C 2.414062 4.050781 2.457031 4.285156 2.535156 4.496094 Z M 2.535156 4.496094 "/>
    <path style=" stroke:none;fill-rule:nonzero;fill:rgb(17.254902%,27.058825%,56.078434%);fill-opacity:1;" d="M 2.324219 5.082031 C 1.226562 5.433594 0.46875 6.492188 0.46875 7.640625 C 0.46875 8.765625 1.164062 9.769531 2.207031 10.164062 L 5.640625 7.054688 L 5.015625 5.710938 Z M 2.324219 5.082031 "/>
    <path style=" stroke:none;fill-rule:nonzero;fill:rgb(58.431375%,77.64706%,23.921569%);fill-opacity:1;" d="M 10.488281 13.742188 C 10.824219 14.003906 11.230469 14.144531 11.648438 14.144531 C 12.707031 14.144531 13.582031 13.285156 13.582031 12.210938 C 13.582031 11.976562 13.542969 11.753906 13.464844 11.546875 L 11.023438 10.972656 Z M 10.488281 13.742188 "/>
    <path style=" stroke:none;fill-rule:nonzero;fill:rgb(9.019608%,40.000001%,33.333334%);fill-opacity:1;" d="M 10.984375 10.332031 L 13.671875 10.960938 C 14.769531 10.59375 15.527344 9.546875 15.527344 8.398438 C 15.527344 7.277344 14.835938 6.285156 13.789062 5.878906 L 10.265625 8.960938 Z M 10.984375 10.332031 "/>
  </g>
</svg>
