<?xml version="1.0" encoding="UTF-8"?>
<svg xmlns="http://www.w3.org/2000/svg" xmlns:xlink="http://www.w3.org/1999/xlink" width="40px" height="40px" viewBox="0 0 40 40" version="1.1">
<g id="surface1">
<path style=" stroke:none;fill-rule:nonzero;fill:rgb(100%,100%,100%);fill-opacity:1;" d="M 39.992188 20.996094 C 39.992188 17.636719 37.898438 14.726562 34.804688 13.585938 C 34.929688 12.882812 35 12.15625 35 11.4375 C 35 5.195312 29.941406 0.136719 23.703125 0.136719 C 20.078125 0.136719 16.679688 1.867188 14.5625 4.835938 C 13.515625 4.023438 12.246094 3.59375 10.90625 3.59375 C 7.609375 3.59375 4.890625 6.28125 4.890625 9.609375 C 4.890625 10.320312 5.03125 11.046875 5.253906 11.699219 C 2.117188 12.773438 0 15.773438 0 19.101562 C 0 22.46875 2.089844 25.410156 5.226562 26.554688 C 5.097656 27.234375 5.03125 27.949219 5.03125 28.703125 C 5.03125 34.902344 10.085938 39.96875 16.289062 39.96875 C 19.953125 39.96875 23.3125 38.203125 25.429688 35.265625 C 26.476562 36.085938 27.78125 36.542969 29.121094 36.542969 C 32.421875 36.542969 35.125 33.859375 35.125 30.527344 C 35.125 29.8125 35 29.09375 34.765625 28.445312 C 37.84375 27.335938 39.992188 24.328125 39.992188 20.996094 Z M 39.992188 20.996094 "/>
<path style=" stroke:none;fill-rule:nonzero;fill:rgb(95.686275%,74.117649%,9.803922%);fill-opacity:1;" d="M 15.632812 17.246094 L 24.550781 21.328125 L 33.5625 13.429688 C 33.691406 12.773438 33.757812 12.101562 33.757812 11.4375 C 33.757812 5.878906 29.25 1.375 23.703125 1.375 C 20.371094 1.375 17.273438 3.007812 15.410156 5.75 L 13.90625 13.523438 Z M 15.632812 17.246094 "/>
<path style=" stroke:none;fill-rule:nonzero;fill:rgb(23.529412%,74.509805%,69.411767%);fill-opacity:1;" d="M 6.398438 26.679688 C 6.269531 27.335938 6.203125 28.015625 6.203125 28.703125 C 6.203125 34.257812 10.742188 38.789062 16.289062 38.789062 C 19.65625 38.789062 22.753906 37.128906 24.648438 34.382812 L 26.125 26.609375 L 24.132812 22.832031 L 15.1875 18.75 Z M 6.398438 26.679688 "/>
<path style=" stroke:none;fill-rule:nonzero;fill:rgb(91.37255%,27.843139%,54.901963%);fill-opacity:1;" d="M 6.335938 11.242188 L 12.441406 12.675781 L 13.808594 5.722656 C 12.960938 5.070312 11.953125 4.734375 10.867188 4.734375 C 8.222656 4.734375 6.035156 6.894531 6.035156 9.570312 C 6.035156 10.125 6.140625 10.710938 6.335938 11.242188 Z M 6.335938 11.242188 "/>
<path style=" stroke:none;fill-rule:nonzero;fill:rgb(17.254902%,27.058825%,56.078434%);fill-opacity:1;" d="M 5.8125 12.703125 C 3.066406 13.585938 1.171875 16.230469 1.171875 19.101562 C 1.171875 21.914062 2.910156 24.421875 5.515625 25.410156 L 14.101562 17.636719 L 12.539062 14.277344 Z M 5.8125 12.703125 "/>
<path style=" stroke:none;fill-rule:nonzero;fill:rgb(58.431375%,77.64706%,23.921569%);fill-opacity:1;" d="M 26.21875 34.355469 C 27.0625 35.007812 28.078125 35.359375 29.121094 35.359375 C 31.765625 35.359375 33.953125 33.210938 33.953125 30.527344 C 33.953125 29.941406 33.859375 29.382812 33.664062 28.867188 L 27.558594 27.429688 Z M 26.21875 34.355469 "/>
<path style=" stroke:none;fill-rule:nonzero;fill:rgb(9.019608%,40.000001%,33.333334%);fill-opacity:1;" d="M 27.460938 25.828125 L 34.179688 27.402344 C 36.921875 26.484375 38.820312 23.867188 38.820312 20.996094 C 38.820312 18.195312 37.089844 15.710938 34.472656 14.695312 L 25.664062 22.402344 Z M 27.460938 25.828125 "/>
</g>
</svg>
